<svg width="441" height="340" viewBox="0 0 441 340" fill="none" xmlns="http://www.w3.org/2000/svg">
<rect width="441" height="340" fill="#D6D6D6"/>
<rect width="1440" height="3311" transform="translate(-836 -234)" fill="white"/>
<path d="M429.249 105.019C426.219 97.4757 422.399 90.256 417.85 83.4746C397.717 53.56 360.392 33.7636 328.466 18.592C231.158 -27.656 150.068 23.104 104.89 74.992C59.711 126.88 6.42335 153.952 0.631217 210.352C-5.16091 266.752 28.4334 328.792 121.108 338.944C213.782 349.096 286.762 280.288 349.317 288.184C444.911 300.242 453.576 165.108 429.249 105.019Z" fill="#1E4646"/>
<path opacity="0.7" d="M429.249 105.019C426.219 97.4757 422.399 90.256 417.85 83.4746C397.717 53.56 360.392 33.7636 328.466 18.592C231.158 -27.656 150.068 23.104 104.89 74.992C59.711 126.88 6.42335 153.952 0.631217 210.352C-5.16091 266.752 28.4334 328.792 121.108 338.944C213.782 349.096 286.762 280.288 349.317 288.184C444.911 300.242 453.576 165.108 429.249 105.019Z" fill="white"/>
<path d="M212.818 121.86C202.035 114.472 185.904 113.197 185.904 113.197C209.592 109.486 232.31 116.92 232.31 116.92C232.31 116.92 217.195 105.775 206.366 105.775C195.537 105.775 178.313 104.534 178.313 104.534C184.776 97.112 208.464 88.449 208.464 88.449C208.464 88.449 191.195 88.449 183.648 89.6898C176.102 90.9306 173.936 99.5824 173.936 99.5824C173.936 99.5824 171.782 94.6304 155.595 90.9193C139.408 87.2082 135.144 99.5824 135.144 99.5824H150.248C155.651 99.5824 163.198 107.016 163.198 107.016C163.198 107.016 145.939 107.016 139.51 110.727C133.937 113.919 126.786 127.173 124.846 130.817C129.285 107.996 135.593 85.5784 143.706 63.7909L144.134 63.4638C154.749 55.816 159.306 51.304 159.306 51.304L177.568 81.76L176.046 55.816C176.046 55.816 191.251 60.3844 195.819 64.9415C200.388 69.4986 214.104 84.7604 214.104 84.7604C214.104 84.7604 208.013 61.9523 200.41 54.3044C192.808 46.6566 179.136 37.61 179.136 37.61C179.136 37.61 195.876 37.61 201.956 40.6556C208.036 43.7012 226.242 55.816 226.242 55.816C226.242 55.816 214.104 34.5644 204.945 30.0073C195.786 25.4502 171.477 25.4389 171.477 25.4389C171.477 25.4389 182.125 16.3134 189.728 16.3134H211.025C211.025 16.3134 204.945 1.10796 182.125 5.66508C159.306 10.2222 156.272 16.336 156.272 16.336C156.272 16.336 153.226 5.68764 142.578 4.17612C131.929 2.6646 107.61 2.65332 107.61 2.65332C107.61 2.65332 141.066 13.3016 150.192 22.4272C150.192 22.4272 125.861 23.95 110.644 23.95C95.4274 23.95 74.142 37.6326 74.142 37.6326C74.142 37.6326 106.087 28.5071 139.566 33.1206C139.566 33.1206 116.758 34.6321 101.541 43.7689C86.3244 52.9057 71.0851 74.2249 71.0851 74.2249C71.0851 74.2249 84.779 60.5423 103.03 55.9739C121.281 51.4055 147.146 45.3256 147.146 45.3256C147.146 45.3256 121.281 66.5094 118.224 77.1577C115.167 87.806 106.053 106.057 106.053 106.057C106.053 106.057 127.857 78.1955 140.119 66.8027C129.967 94.7771 117.164 139.841 115.585 191.887C111.073 173.433 97.9202 135.238 63.505 116.096C70.0248 117.879 79.421 120.473 87.0012 122.639C99.9506 126.35 109.663 137.494 109.663 137.494C109.663 137.494 98.8678 120.168 88.0728 112.735C77.2778 105.301 61.091 104.072 61.091 104.072C84.779 100.361 107.497 107.783 107.497 107.783C107.497 107.783 92.393 96.6496 81.553 96.6496C70.7129 96.6496 53.4996 95.4088 53.4996 95.4088C59.9743 87.9865 83.7187 79.3235 83.7187 79.3235C83.7187 79.3235 66.449 79.3235 58.9027 80.553C51.3564 81.7825 49.1906 90.4568 49.1906 90.4568C49.1906 90.4568 47.0362 85.5049 30.8381 81.7938C14.64 78.0827 10.3423 90.4568 10.3423 90.4568H25.5026C30.8945 90.4568 38.4521 97.8904 38.4521 97.8904C38.4521 97.8904 21.1824 97.8904 14.7641 101.601C8.34576 105.313 -0.339844 122.639 -0.339844 122.639C-0.339844 122.639 12.6096 112.735 16.9298 110.231C21.2501 107.727 33.1166 107.749 33.1166 107.749C33.1166 107.749 23.4046 115.183 18.0014 121.364C12.5983 127.545 8.28936 146.18 8.28936 146.18C8.28936 146.18 18.0014 133.772 21.2388 130.095C24.4762 126.417 35.2711 122.661 35.2711 122.661L34.1431 143.71L47.1038 118.894C50.4487 122.457 54.0531 125.767 57.8875 128.798C65.4451 134.979 84.8693 163.45 84.8693 163.45C84.8693 163.45 78.3946 148.594 76.2401 139.931C74.4578 132.802 61.7227 119.807 57.2784 115.442C101.27 136.084 112.911 188.04 115.032 200.042H96.7922L100.808 235.382H132.888L136.893 200.042H118.055C119.183 192.845 123.221 171.357 133.847 151.843C133.294 153.896 132.978 155.227 132.978 155.227C132.978 155.227 142.691 142.819 145.939 139.141C149.188 135.464 159.96 131.764 159.96 131.764L158.832 152.824L171.782 128.008C175.129 131.573 178.737 134.883 182.577 137.912C190.123 144.105 209.547 172.564 209.547 172.564C209.547 172.564 203.072 157.708 200.918 149.045C198.763 140.382 180.411 123.101 180.411 123.101C180.411 123.101 198.763 128.053 211.713 131.764C224.662 135.475 234.408 146.62 234.408 146.62C234.408 146.62 223.613 129.294 212.818 121.86ZM117.987 188.582C118.793 169.412 121.033 150.329 124.688 131.493C126.729 129.937 137.682 121.635 141.608 119.39C145.928 116.92 157.794 116.92 157.794 116.92C157.794 116.92 148.082 124.342 142.679 130.535C140.356 133.208 138.224 138.194 136.554 142.943C126.323 158.374 120.785 176.512 117.987 188.582Z" fill="#1E4646"/>
<path opacity="0.5" d="M212.818 121.86C202.035 114.472 185.904 113.197 185.904 113.197C209.592 109.486 232.31 116.92 232.31 116.92C232.31 116.92 217.195 105.775 206.366 105.775C195.537 105.775 178.313 104.534 178.313 104.534C184.776 97.112 208.464 88.449 208.464 88.449C208.464 88.449 191.195 88.449 183.648 89.6898C176.102 90.9306 173.936 99.5824 173.936 99.5824C173.936 99.5824 171.782 94.6304 155.595 90.9193C139.408 87.2082 135.144 99.5824 135.144 99.5824H150.248C155.651 99.5824 163.198 107.016 163.198 107.016C163.198 107.016 145.939 107.016 139.51 110.727C133.937 113.919 126.786 127.173 124.846 130.817C129.285 107.996 135.593 85.5784 143.706 63.7909L144.134 63.4638C154.749 55.816 159.306 51.304 159.306 51.304L177.568 81.76L176.046 55.816C176.046 55.816 191.251 60.3844 195.819 64.9415C200.388 69.4986 214.104 84.7604 214.104 84.7604C214.104 84.7604 208.013 61.9523 200.41 54.3044C192.808 46.6566 179.136 37.61 179.136 37.61C179.136 37.61 195.876 37.61 201.956 40.6556C208.036 43.7012 226.242 55.816 226.242 55.816C226.242 55.816 214.104 34.5644 204.945 30.0073C195.786 25.4502 171.477 25.4389 171.477 25.4389C171.477 25.4389 182.125 16.3134 189.728 16.3134H211.025C211.025 16.3134 204.945 1.10796 182.125 5.66508C159.306 10.2222 156.272 16.336 156.272 16.336C156.272 16.336 153.226 5.68764 142.578 4.17612C131.929 2.6646 107.61 2.65332 107.61 2.65332C107.61 2.65332 141.066 13.3016 150.192 22.4272C150.192 22.4272 125.861 23.95 110.644 23.95C95.4274 23.95 74.142 37.6326 74.142 37.6326C74.142 37.6326 106.087 28.5071 139.566 33.1206C139.566 33.1206 116.758 34.6321 101.541 43.7689C86.3244 52.9057 71.0851 74.2249 71.0851 74.2249C71.0851 74.2249 84.779 60.5423 103.03 55.9739C121.281 51.4055 147.146 45.3256 147.146 45.3256C147.146 45.3256 121.281 66.5094 118.224 77.1577C115.167 87.806 106.053 106.057 106.053 106.057C106.053 106.057 127.857 78.1955 140.119 66.8027C129.967 94.7771 117.164 139.841 115.585 191.887C111.073 173.433 97.9202 135.238 63.505 116.096C70.0248 117.879 79.421 120.473 87.0012 122.639C99.9506 126.35 109.663 137.494 109.663 137.494C109.663 137.494 98.8678 120.168 88.0728 112.735C77.2778 105.301 61.091 104.072 61.091 104.072C84.779 100.361 107.497 107.783 107.497 107.783C107.497 107.783 92.393 96.6496 81.553 96.6496C70.7129 96.6496 53.4996 95.4088 53.4996 95.4088C59.9743 87.9865 83.7187 79.3235 83.7187 79.3235C83.7187 79.3235 66.449 79.3235 58.9027 80.553C51.3564 81.7825 49.1906 90.4568 49.1906 90.4568C49.1906 90.4568 47.0362 85.5049 30.8381 81.7938C14.64 78.0827 10.3423 90.4568 10.3423 90.4568H25.5026C30.8945 90.4568 38.4521 97.8904 38.4521 97.8904C38.4521 97.8904 21.1824 97.8904 14.7641 101.601C8.34576 105.313 -0.339844 122.639 -0.339844 122.639C-0.339844 122.639 12.6096 112.735 16.9298 110.231C21.2501 107.727 33.1166 107.749 33.1166 107.749C33.1166 107.749 23.4046 115.183 18.0014 121.364C12.5983 127.545 8.28936 146.18 8.28936 146.18C8.28936 146.18 18.0014 133.772 21.2388 130.095C24.4762 126.417 35.2711 122.661 35.2711 122.661L34.1431 143.71L47.1038 118.894C50.4487 122.457 54.0531 125.767 57.8875 128.798C65.4451 134.979 84.8693 163.45 84.8693 163.45C84.8693 163.45 78.3946 148.594 76.2401 139.931C74.4578 132.802 61.7227 119.807 57.2784 115.442C101.27 136.084 112.911 188.04 115.032 200.042H96.7922L100.808 235.382H132.888L136.893 200.042H118.055C119.183 192.845 123.221 171.357 133.847 151.843C133.294 153.896 132.978 155.227 132.978 155.227C132.978 155.227 142.691 142.819 145.939 139.141C149.188 135.464 159.96 131.764 159.96 131.764L158.832 152.824L171.782 128.008C175.129 131.573 178.737 134.883 182.577 137.912C190.123 144.105 209.547 172.564 209.547 172.564C209.547 172.564 203.072 157.708 200.918 149.045C198.763 140.382 180.411 123.101 180.411 123.101C180.411 123.101 198.763 128.053 211.713 131.764C224.662 135.475 234.408 146.62 234.408 146.62C234.408 146.62 223.613 129.294 212.818 121.86ZM117.987 188.582C118.793 169.412 121.033 150.329 124.688 131.493C126.729 129.937 137.682 121.635 141.608 119.39C145.928 116.92 157.794 116.92 157.794 116.92C157.794 116.92 148.082 124.342 142.679 130.535C140.356 133.208 138.224 138.194 136.554 142.943C126.323 158.374 120.785 176.512 117.987 188.582Z" fill="white"/>
<path d="M276.223 134.855C284.333 121.319 287.266 104.591 282.991 89.4191C278.558 73.5369 265.89 59.8881 249.997 55.4889C231.949 50.5032 212.683 57.3727 196.563 66.8817C180.444 76.3908 165.904 88.6747 148.68 96.0744C143.728 98.195 137.953 99.8757 133.113 97.552C117.524 90.0621 141.325 76.5825 146.649 73.3339C159.959 65.1661 173.954 58.1724 188.476 52.432C209.31 44.1976 231.813 38.5351 254.013 41.4566C276.212 44.3781 298.004 57.1696 307.153 77.6316C314.473 94.1004 312.883 113.039 310.119 130.851C309.239 136.558 308.089 142.582 304.186 146.834C298.377 153.162 288.495 153.444 280.024 151.922C276.888 151.369 273.38 150.297 272.038 147.41C270.414 143.879 272.929 139.965 275.038 136.705C275.444 136.118 275.839 135.502 276.223 134.855Z" fill="#1E4646"/>
<mask id="mask0_535_17" style="mask-type:luminance" maskUnits="userSpaceOnUse" x="127" y="40" width="186" height="113">
<path d="M276.223 134.855C284.333 121.319 287.266 104.591 282.991 89.4191C278.558 73.5369 265.89 59.8881 249.997 55.4889C231.949 50.5032 212.683 57.3727 196.563 66.8817C180.444 76.3908 165.904 88.6747 148.68 96.0744C143.728 98.195 137.953 99.8757 133.113 97.552C117.524 90.0621 141.325 76.5825 146.649 73.3339C159.959 65.1661 173.954 58.1724 188.476 52.432C209.31 44.1976 231.813 38.5351 254.013 41.4566C276.212 44.3781 298.004 57.1696 307.153 77.6316C314.473 94.1004 312.883 113.039 310.119 130.851C309.239 136.558 308.089 142.582 304.186 146.834C298.377 153.162 288.495 153.444 280.024 151.922C276.888 151.369 273.38 150.297 272.038 147.41C270.414 143.879 272.929 139.965 275.038 136.705C275.444 136.118 275.839 135.502 276.223 134.855Z" fill="white"/>
</mask>
<g mask="url(#mask0_535_17)">
<path d="M157.58 67.0059C153.903 69.0363 150.259 71.1343 146.672 73.3339C141.359 76.5826 117.558 90.0622 133.136 97.5521C137.975 99.8758 143.751 98.1951 148.702 96.0744C156.092 92.7698 163.186 88.8414 169.909 84.3319C167.732 74.2702 162.78 69.3521 157.58 67.0059Z" fill="white"/>
</g>
<path d="M276.223 134.855C284.333 121.319 287.266 104.591 282.991 89.4191C278.558 73.5369 265.89 59.8881 249.997 55.4889C231.949 50.5032 212.683 57.3727 196.563 66.8817C180.444 76.3908 165.904 88.6747 148.68 96.0744C143.728 98.195 137.953 99.8757 133.113 97.552C117.524 90.0621 141.325 76.5825 146.649 73.3339C159.959 65.1661 173.954 58.1724 188.476 52.432C209.31 44.1976 231.813 38.5351 254.013 41.4566C276.212 44.3781 298.004 57.1696 307.153 77.6316C314.473 94.1004 312.883 113.039 310.119 130.851C309.239 136.558 308.089 142.582 304.186 146.834C298.377 153.162 288.495 153.444 280.024 151.922C276.888 151.369 273.38 150.297 272.038 147.41C270.414 143.879 272.929 139.965 275.038 136.705C275.444 136.118 275.839 135.502 276.223 134.855Z" stroke="#343434" stroke-width="1.5" stroke-miterlimit="10"/>
<path d="M276.223 134.855C284.333 121.319 287.266 104.591 282.991 89.4191C278.558 73.5369 265.89 59.8881 249.997 55.4889C231.949 50.5032 212.683 57.3727 196.563 66.8817C180.444 76.3908 165.904 88.6747 148.68 96.0744C143.728 98.195 137.953 99.8757 133.113 97.552C117.524 90.0621 141.325 76.5825 146.649 73.3339C159.959 65.1661 173.954 58.1724 188.476 52.432C209.31 44.1976 231.813 38.5351 254.013 41.4566C276.212 44.3781 298.004 57.1696 307.153 77.6316C314.473 94.1004 312.883 113.039 310.119 130.851C309.239 136.558 308.089 142.582 304.186 146.834C298.377 153.162 288.495 153.444 280.024 151.922C276.888 151.369 273.38 150.297 272.038 147.41C270.414 143.879 272.929 139.965 275.038 136.705C275.444 136.118 275.839 135.502 276.223 134.855Z" fill="#1E4646"/>
<mask id="mask1_535_17" style="mask-type:luminance" maskUnits="userSpaceOnUse" x="127" y="40" width="186" height="113">
<path d="M276.223 134.855C284.333 121.319 287.266 104.591 282.991 89.4191C278.558 73.5369 265.89 59.8881 249.997 55.4889C231.949 50.5032 212.683 57.3727 196.563 66.8817C180.444 76.3908 165.904 88.6747 148.68 96.0744C143.728 98.195 137.953 99.8757 133.113 97.552C117.524 90.0621 141.325 76.5825 146.649 73.3339C159.959 65.1661 173.954 58.1724 188.476 52.432C209.31 44.1976 231.813 38.5351 254.013 41.4566C276.212 44.3781 298.004 57.1696 307.153 77.6316C314.473 94.1004 312.883 113.039 310.119 130.851C309.239 136.558 308.089 142.582 304.186 146.834C298.377 153.162 288.495 153.444 280.024 151.922C276.888 151.369 273.38 150.297 272.038 147.41C270.414 143.879 272.929 139.965 275.038 136.705C275.444 136.118 275.839 135.502 276.223 134.855Z" fill="white"/>
</mask>
<g mask="url(#mask1_535_17)">
<path d="M271.496 56.1092C268.045 62.8095 271.496 64.4902 271.496 64.4902C271.496 64.4902 271.158 61.7041 273.29 56.7521C274.352 53.9725 276.462 51.7206 279.167 50.4805C279.167 50.4805 274.948 49.3976 271.496 56.1092Z" fill="#343434"/>
<path d="M252.873 48.2469C250.482 54.1689 253.313 55.8497 253.313 55.8497C253.16 53.4924 253.518 51.13 254.362 48.9237C255.795 44.5358 258.682 43.5206 258.682 43.5206C258.682 43.5206 255.276 42.2798 252.873 48.2469Z" fill="#343434"/>
<path d="M231.295 45.8218C228.903 51.7438 231.735 53.4246 231.735 53.4246C231.573 51.0679 231.927 48.7045 232.772 46.4986C234.216 42.1107 237.093 41.0955 237.093 41.0955C237.093 41.0955 233.686 39.8998 231.295 45.8218Z" fill="#343434"/>
<path d="M295.038 64.0616C295.038 64.0616 291.936 60.2264 284.22 63.5202C276.505 66.8139 278.501 70.6378 278.501 70.6378C278.501 70.6378 280.114 68.0547 285.438 65.3363C288.36 63.7072 291.792 63.2514 295.038 64.0616Z" fill="#343434"/>
<path d="M291.428 77.9135C294.23 76.0865 297.619 75.3891 300.915 75.9621C300.915 75.9621 297.531 72.3525 290.075 76.199C282.619 80.0455 284.886 83.7002 284.886 83.7002C284.886 83.7002 286.296 81.0042 291.428 77.9135Z" fill="#343434"/>
<path d="M295.32 90.784C285.168 93.2656 286.521 98.4544 286.521 98.4544C286.521 98.4544 289.161 95.5667 296.267 93.2994C303.374 91.0321 308.066 93.7619 308.066 93.7619C308.066 93.7619 305.472 88.3362 295.32 90.784Z" fill="#343434"/>
<path d="M295.162 114.201C284.942 116.254 286.048 121.499 286.048 121.499C286.048 121.499 288.811 118.724 296.008 116.75C303.205 114.776 307.773 117.698 307.773 117.698C307.773 117.698 305.382 112.137 295.162 114.201Z" fill="#343434"/>
<path d="M157.58 67.0056C153.903 69.036 150.259 71.1341 146.672 73.3337C141.359 76.5823 117.558 90.0619 133.136 97.5519C137.975 99.8755 143.751 98.1948 148.702 96.0742C156.092 92.7695 163.186 88.8412 169.909 84.3317C167.732 74.2699 162.78 69.3519 157.58 67.0056Z" fill="white"/>
</g>
<path d="M276.223 134.855C284.333 121.319 287.266 104.591 282.991 89.4191C278.558 73.5369 265.89 59.8881 249.997 55.4889C231.949 50.5032 212.683 57.3727 196.563 66.8817C180.444 76.3908 165.904 88.6747 148.68 96.0744C143.728 98.195 137.953 99.8757 133.113 97.552C117.524 90.0621 141.325 76.5825 146.649 73.3339C159.959 65.1661 173.954 58.1724 188.476 52.432C209.31 44.1976 231.813 38.5351 254.013 41.4566C276.212 44.3781 298.004 57.1696 307.153 77.6316C314.473 94.1004 312.883 113.039 310.119 130.851C309.239 136.558 308.089 142.582 304.186 146.834C298.377 153.162 288.495 153.444 280.024 151.922C276.888 151.369 273.38 150.297 272.038 147.41C270.414 143.879 272.929 139.965 275.038 136.705C275.444 136.118 275.839 135.502 276.223 134.855Z" stroke="#343434" stroke-width="1.5" stroke-miterlimit="10"/>
<path d="M258.096 273.035C258.096 273.035 305.641 277.243 295.41 281.461C285.179 285.68 277.362 283.864 236.427 289.278C195.492 294.693 136.52 294.704 109.437 294.704C82.3534 294.704 75.1342 299.521 90.7795 299.521C106.425 299.521 138.325 299.521 200.32 301.923C262.314 304.326 335.68 318.775 373.039 303.728C410.398 288.68 374.246 275.438 374.246 275.438C374.246 275.438 388.696 272.437 376.66 267.621C364.624 262.804 318.275 257.988 296.572 254.976C274.869 251.964 262.878 258.585 277.915 258.585C292.951 258.585 363.981 265.816 354.957 271.828C345.933 277.84 301.998 271.23 287.548 268.219C273.098 265.207 254.452 268.219 258.096 273.035Z" fill="#343434"/>
<path d="M309.612 248.478C309.612 248.478 313.436 267.248 319.335 277.333C325.235 287.417 337.067 286.717 338.804 278.72C340.542 270.722 332.555 260.672 330.469 253.002C328.382 245.331 328.731 231.795 328.731 231.795C328.731 231.795 308.912 230.058 309.612 248.478Z" fill="#1E4646"/>
<mask id="mask2_535_17" style="mask-type:luminance" maskUnits="userSpaceOnUse" x="309" y="231" width="31" height="54">
<path d="M309.612 248.478C309.612 248.478 313.436 267.248 319.335 277.333C325.235 287.417 337.067 286.717 338.804 278.72C340.542 270.722 332.555 260.672 330.469 253.002C328.382 245.331 328.731 231.795 328.731 231.795C328.731 231.795 308.912 230.058 309.612 248.478Z" fill="white"/>
</mask>
<g mask="url(#mask2_535_17)">
<path d="M316.019 270.35C316.955 272.754 318.064 275.088 319.335 277.333C325.246 287.417 337.068 286.718 338.805 278.72C340.102 272.798 336.041 265.725 333.007 259.352C329.483 259.625 326.083 260.773 323.116 262.694C320.15 264.615 317.71 267.247 316.019 270.35Z" fill="white"/>
</g>
<path d="M309.612 248.478C309.612 248.478 313.436 267.248 319.335 277.333C325.235 287.417 337.067 286.717 338.804 278.72C340.542 270.722 332.555 260.672 330.469 253.002C328.382 245.331 328.731 231.795 328.731 231.795C328.731 231.795 308.912 230.058 309.612 248.478Z" stroke="#343434" stroke-width="1.5" stroke-miterlimit="10"/>
<path d="M326.295 271.772C326.295 271.772 331.157 278.032 329.769 284.293" stroke="#343434" stroke-width="1.5" stroke-miterlimit="10" stroke-linecap="round"/>
<path d="M332.206 269.335C334.326 270.543 335.945 272.467 336.772 274.763C337.6 277.058 337.58 279.574 336.718 281.856" stroke="#343434" stroke-width="1.5" stroke-miterlimit="10" stroke-linecap="round"/>
<path d="M298.478 258.213C298.478 258.213 288.405 268.647 277.622 271.749C266.838 274.851 256.066 274.185 257.464 269.313C258.863 264.44 263.713 262.714 269.974 262.714C276.234 262.714 289.15 249.843 289.15 249.843C289.15 249.843 303.002 241.18 298.478 258.213Z" fill="#1E4646" stroke="#343434" stroke-width="1.5" stroke-miterlimit="10"/>
<path d="M176.801 207.115C176.801 207.115 161.855 214.063 159.069 221.711C157.259 226.924 155.867 232.272 154.907 237.706C154.907 237.706 136.125 246.392 121.879 251.242C107.632 256.093 93.0245 257.841 84.6547 263.752C76.2849 269.662 75.9578 276.272 80.8308 281.134C85.7037 285.996 95.4271 284.27 98.5629 282.522C101.699 280.773 108.986 273.836 118.72 272.099C128.455 270.362 157.659 276.272 174.692 272.787C191.724 269.301 206.276 263.763 210.156 263.763C214.036 263.763 229.332 265.85 239.36 259.251C249.388 252.652 242.834 222.027 235.186 207.103C227.538 192.18 187.235 201.892 176.801 207.115Z" fill="#1E4646"/>
<mask id="mask3_535_17" style="mask-type:luminance" maskUnits="userSpaceOnUse" x="77" y="199" width="168" height="86">
<path d="M176.801 207.115C176.801 207.115 161.855 214.063 159.069 221.711C157.259 226.924 155.867 232.272 154.907 237.706C154.907 237.706 136.125 246.392 121.879 251.242C107.632 256.093 93.0245 257.841 84.6547 263.752C76.2849 269.662 75.9578 276.272 80.8308 281.134C85.7037 285.996 95.4271 284.27 98.5629 282.522C101.699 280.773 108.986 273.836 118.72 272.099C128.455 270.362 157.659 276.272 174.692 272.787C191.724 269.301 206.276 263.763 210.156 263.763C214.036 263.763 229.332 265.85 239.36 259.251C249.388 252.652 242.834 222.027 235.186 207.103C227.538 192.18 187.235 201.892 176.801 207.115Z" fill="white"/>
</mask>
<g mask="url(#mask3_535_17)">
<path d="M212.254 234.638C206.219 224.644 201.267 205.874 191.668 202.197C186.56 203.332 181.579 204.98 176.801 207.115C176.801 207.115 175.244 207.837 173.034 209.078C169.48 213.15 169.65 217.571 173.203 220.358C179.068 224.87 199.891 248.997 194.037 247.035C193.07 246.684 192.152 246.21 191.307 245.625C185.013 241.508 175.301 230.882 168.003 227.52C159.543 223.606 175.808 245.083 175.808 251.592C175.808 258.1 169.3 252.246 163.4 245.083C157.501 237.921 156.238 244.44 159.497 251.592C162.757 258.743 158.189 262.003 144.529 262.003C130.869 262.003 114.592 262.658 114.592 262.658C114.094 259.627 112.662 256.827 110.497 254.649C100.244 257.379 90.7572 259.477 84.6321 263.808C76.2849 269.719 75.9353 276.329 80.8082 281.191C85.6812 286.052 95.4045 284.326 98.5404 282.578C101.676 280.83 108.963 273.892 118.698 272.155C128.432 270.418 157.636 276.329 174.669 272.843C191.702 269.358 206.253 263.819 210.133 263.819C213.698 263.819 227.211 265.624 237.205 260.537C233.201 257.232 218.526 245.027 212.254 234.638Z" fill="white"/>
</g>
<path d="M176.801 207.115C176.801 207.115 161.855 214.063 159.069 221.711C157.259 226.924 155.867 232.272 154.907 237.706C154.907 237.706 136.125 246.392 121.879 251.242C107.632 256.093 93.0245 257.841 84.6547 263.752C76.2849 269.662 75.9578 276.272 80.8308 281.134C85.7037 285.996 95.4271 284.27 98.5629 282.522C101.699 280.773 108.986 273.836 118.72 272.099C128.455 270.362 157.659 276.272 174.692 272.787C191.724 269.301 206.276 263.763 210.156 263.763C214.036 263.763 229.332 265.85 239.36 259.251C249.388 252.652 242.834 222.027 235.186 207.103C227.538 192.18 187.235 201.892 176.801 207.115Z" stroke="#343434" stroke-width="1.5" stroke-miterlimit="10"/>
<path d="M84.6773 275.596C86.216 275.596 87.4634 274.348 87.4634 272.809C87.4634 271.271 86.216 270.023 84.6773 270.023C83.1385 270.023 81.8911 271.271 81.8911 272.809C81.8911 274.348 83.1385 275.596 84.6773 275.596Z" fill="#343434"/>
<path d="M96.1489 276.633C99.027 276.633 101.36 274.3 101.36 271.422C101.36 268.544 99.027 266.21 96.1489 266.21C93.2707 266.21 90.9375 268.544 90.9375 271.422C90.9375 274.3 93.2707 276.633 96.1489 276.633Z" fill="#343434"/>
<path d="M89.2007 281.856C90.7395 281.856 91.9869 280.609 91.9869 279.07C91.9869 277.531 90.7395 276.284 89.2007 276.284C87.662 276.284 86.4146 277.531 86.4146 279.07C86.4146 280.609 87.662 281.856 89.2007 281.856Z" fill="#343434"/>
<path d="M96.1489 281.856C97.6877 281.856 98.9351 280.609 98.9351 279.07C98.9351 277.531 97.6877 276.284 96.1489 276.284C94.6102 276.284 93.3628 277.531 93.3628 279.07C93.3628 280.609 94.6102 281.856 96.1489 281.856Z" fill="#343434"/>
<path d="M200.444 238.044C216.439 255.427 228.26 263.086 244.594 265.116C260.927 267.147 282.145 265.116 298.478 258.168C314.812 251.219 318.647 246.696 318.647 246.696C322.499 244.745 326.214 242.537 329.769 240.086C337.767 234.875 352.329 219.579 356.187 199.76C359.481 182.693 356.773 163.777 348.009 148.684C337.857 131.133 319.177 122.142 299.189 121.793C287.04 121.59 275.783 125.955 265.8 132.667C246.681 145.526 242.112 156.659 242.112 156.659H222.35C222.35 156.659 212.615 152.835 194.883 170.906" fill="#1E4646"/>
<mask id="mask4_535_17" style="mask-type:luminance" maskUnits="userSpaceOnUse" x="194" y="121" width="164" height="145">
<path d="M200.444 238.044C216.439 255.427 228.26 263.086 244.594 265.116C260.927 267.147 282.145 265.116 298.478 258.168C314.812 251.219 318.647 246.696 318.647 246.696C322.499 244.745 326.214 242.537 329.769 240.086C337.767 234.875 352.329 219.579 356.187 199.76C359.481 182.693 356.773 163.777 348.009 148.684C337.857 131.133 319.177 122.142 299.189 121.793C287.04 121.59 275.783 125.955 265.8 132.667C246.681 145.526 242.112 156.659 242.112 156.659H222.35C222.35 156.659 212.615 152.835 194.883 170.906" fill="white"/>
</mask>
<g mask="url(#mask4_535_17)">
<path d="M343.068 204.712C341.771 192.304 335.262 206.02 333.311 210.566C329.464 219.59 331.36 189.134 325.494 181.938C319.628 174.741 326.802 199.512 324.851 207.972C322.9 216.432 324.197 202.106 319.64 193.646C315.082 185.186 321.591 204.712 311.834 215.778C302.077 226.843 284.491 216.432 284.491 216.432C292.658 239.545 270.82 257.288 256.821 265.94C270.651 266.008 285.991 263.537 298.478 258.224C314.823 251.276 318.647 246.753 318.647 246.753C322.499 244.802 326.214 242.593 329.769 240.142C331.959 238.661 334.019 236.997 335.928 235.168C341.365 224.283 343.982 213.375 343.068 204.712Z" fill="white"/>
</g>
<path d="M200.444 238.044C216.439 255.427 228.26 263.086 244.594 265.116C260.927 267.147 282.145 265.116 298.478 258.168C314.812 251.219 318.647 246.696 318.647 246.696C322.499 244.745 326.214 242.537 329.769 240.086C337.767 234.875 352.329 219.579 356.187 199.76C359.481 182.693 356.773 163.777 348.009 148.684C337.857 131.133 319.177 122.142 299.189 121.793C287.04 121.59 275.783 125.955 265.8 132.667C246.681 145.526 242.112 156.659 242.112 156.659H222.35C222.35 156.659 212.615 152.835 194.883 170.906" stroke="#343434" stroke-width="1.5" stroke-miterlimit="10"/>
<path d="M182.362 214.413C182.362 214.413 194.183 232.461 213.946 236.973C233.709 241.485 238.627 214.029 236.89 199.749C235.152 185.468 228.892 185.841 226.467 188.977C224.042 192.112 212.559 201.486 201.087 203.923C189.615 206.359 180.625 208.153 182.362 214.413Z" fill="white"/>
<path d="M166.953 137.258C163.164 136.626 159.321 136.369 155.482 136.491C150.891 136.874 141.709 141.082 137.501 141.837C133.294 142.593 135.245 144.093 140.569 150.252C145.894 156.411 158.539 160.201 158.539 160.201L166.953 137.258Z" fill="#1E4646" stroke="#343434" stroke-width="1.5" stroke-miterlimit="10"/>
<path d="M233.111 181.994C233.111 181.994 226.614 198.44 216.676 203.798C210.77 207.007 204.214 208.839 197.5 209.156C197.5 209.156 190.619 215.654 177.997 216.421C165.375 217.188 157.693 205.705 157.693 201.881V191.559C157.693 191.559 149.662 181.611 150.045 176.264C150.429 170.917 150.812 146.812 164.585 137.258C178.358 127.703 191.736 128.843 202.441 131.133C213.145 133.422 225.001 146.428 228.825 154.076C232.648 161.724 232.66 171.289 232.66 171.289" fill="#1E4646"/>
<mask id="mask5_535_17" style="mask-type:luminance" maskUnits="userSpaceOnUse" x="150" y="129" width="84" height="88">
<path d="M233.111 181.994C233.111 181.994 226.614 198.44 216.676 203.798C210.77 207.007 204.214 208.839 197.5 209.156C197.5 209.156 190.619 215.654 177.997 216.421C165.375 217.188 157.693 205.705 157.693 201.881V191.559C157.693 191.559 149.662 181.611 150.045 176.264C150.429 170.917 150.812 146.812 164.585 137.258C178.358 127.703 191.736 128.843 202.441 131.133C213.145 133.422 225.001 146.428 228.825 154.076C232.648 161.724 232.66 171.289 232.66 171.289" fill="white"/>
</mask>
<g mask="url(#mask5_535_17)">
<path d="M179.069 198.846L173.203 189.078C173.203 189.078 171.906 177.369 165.398 170.861C158.889 164.352 163.345 191.176 163.345 191.176C161.4 191.603 159.534 192.334 157.817 193.342V201.869C157.817 205.693 165.465 217.176 178.121 216.409C182.764 216.151 187.313 215.002 191.522 213.025C189.401 203.031 179.069 198.846 179.069 198.846Z" fill="white"/>
<path d="M177.241 194.56C177.241 194.56 181.088 186.867 191.183 192.631" stroke="#343434" stroke-width="2" stroke-miterlimit="10" stroke-linecap="round"/>
<path d="M156.091 184.464C156.091 184.464 159.938 182.05 160.897 188.785" stroke="#343434" stroke-width="2" stroke-miterlimit="10" stroke-linecap="round"/>
<path d="M166.661 209.946C166.661 209.946 169.063 214.266 172.921 215.71" stroke="#343434" stroke-miterlimit="10" stroke-linecap="round"/>
<path d="M181.663 169.563C181.663 169.563 184.269 178.666 197.286 180.618C210.303 182.569 214.702 177.38 210.551 172.823C206.4 168.266 184.269 169.563 181.663 169.563Z" fill="#343434"/>
<path d="M210.551 172.823C210.551 172.823 199.847 175.88 191.432 175.88C183.017 175.88 179.193 168.616 177.275 166.36C175.358 164.104 184.923 155.655 196.451 157.945C207.979 160.235 210.551 172.823 210.551 172.823Z" fill="#1E4646" stroke="#343434" stroke-width="1.5" stroke-miterlimit="10"/>
<path d="M170.112 209.754C171.06 208.931 171.24 207.566 169.424 206.968C167.022 206.178 163.13 205.208 163.942 207.622C164.282 208.521 164.908 209.282 165.723 209.79C166.538 210.297 167.498 210.523 168.454 210.431C169.066 210.391 169.648 210.154 170.112 209.754Z" fill="#343434"/>
<path d="M222 193.635C222 193.635 219.395 195.586 211.578 195.586C203.761 195.586 197.917 194.943 197.917 194.943C197.917 194.943 207.675 198.192 212.886 198.846C218.097 199.501 222 193.635 222 193.635Z" fill="#343434"/>
<path d="M214.206 202.749C214.206 202.749 209.694 206.652 204.448 204.701C199.203 202.749 192.729 199.5 192.729 199.5C192.729 199.5 209.006 204.058 214.206 202.749Z" fill="#343434"/>
<path d="M183.648 144.172C183.648 144.172 172.594 148.684 171.24 161.092C169.887 173.5 171.24 180.607 171.24 180.607C171.24 180.607 173.857 155.892 183.648 144.172Z" fill="#343434"/>
<path d="M166.051 146.135C166.051 146.135 159.486 148.887 158.539 160.201C157.591 171.515 157.591 179.377 157.591 179.377C157.591 179.377 160.84 155.238 166.051 146.135Z" fill="#343434"/>
</g>
<path d="M233.111 181.994C233.111 181.994 226.614 198.44 216.676 203.798C210.77 207.007 204.214 208.839 197.5 209.156C197.5 209.156 190.619 215.654 177.997 216.421C165.375 217.188 157.693 205.705 157.693 201.881V191.559C157.693 191.559 149.662 181.611 150.045 176.264C150.429 170.917 150.812 146.812 164.585 137.258C178.358 127.703 191.736 128.843 202.441 131.133C213.145 133.422 225.001 146.428 228.825 154.076C232.648 161.724 232.66 171.289 232.66 171.289" stroke="#343434" stroke-width="1.5" stroke-miterlimit="10"/>
<path d="M157.772 201.881C157.772 201.881 140.649 197.03 130.564 196.681" stroke="#343434" stroke-width="0.5" stroke-miterlimit="10" stroke-linecap="round"/>
<path d="M158.031 204.712C158.031 204.712 134.343 202.625 123.266 204.712" stroke="#343434" stroke-width="0.5" stroke-miterlimit="10" stroke-linecap="round"/>
<path d="M159.768 207.115C159.768 207.115 131.568 208.502 123.266 211.277" stroke="#343434" stroke-width="0.5" stroke-miterlimit="10" stroke-linecap="round"/>
<path d="M182.362 213.014C182.362 213.014 184.449 229.009 185.498 240.086" stroke="#343434" stroke-width="0.5" stroke-miterlimit="10" stroke-linecap="round"/>
<path d="M184.099 209.89C184.099 209.89 195.582 227.622 195.582 236.307" stroke="#343434" stroke-width="0.5" stroke-miterlimit="10" stroke-linecap="round"/>
<path d="M188.273 208.852C188.273 208.852 201.809 220.324 204.618 230.746" stroke="#343434" stroke-width="0.5" stroke-miterlimit="10" stroke-linecap="round"/>
<path d="M318.647 246.741C318.647 246.741 337.767 231.096 334.98 196.331" stroke="#343434" stroke-width="1.5" stroke-miterlimit="10" stroke-linecap="round"/>
<path d="M257.115 206.066C257.115 206.066 268.936 206.415 283.882 214.413C298.828 222.41 313.774 226.234 313.774 234.92C313.774 243.605 282.833 261.687 267.887 272.809C252.941 283.931 241.119 294.715 230.663 297.501C220.206 300.288 206.682 300.626 204.945 293.677C203.207 286.729 212.243 284.981 217.454 284.292C222.665 283.604 231.362 281.506 231.362 281.506L249.072 264.496C249.072 264.496 228.903 263.109 219.518 246.764" fill="#1E4646"/>
<mask id="mask6_535_17" style="mask-type:luminance" maskUnits="userSpaceOnUse" x="204" y="206" width="110" height="94">
<path d="M257.115 206.066C257.115 206.066 268.936 206.415 283.882 214.413C298.828 222.41 313.774 226.234 313.774 234.92C313.774 243.605 282.833 261.687 267.887 272.809C252.941 283.931 241.119 294.715 230.663 297.501C220.206 300.288 206.682 300.626 204.945 293.677C203.207 286.729 212.243 284.981 217.454 284.292C222.665 283.604 231.362 281.506 231.362 281.506L249.072 264.496C249.072 264.496 228.903 263.109 219.518 246.764" fill="white"/>
</mask>
<g mask="url(#mask6_535_17)">
<path d="M229.828 256.769C229.828 256.769 241.537 255.472 248.045 245.049C254.554 234.626 256.505 221.621 256.505 221.621C256.505 221.621 256.505 236.589 251.993 246.358C247.481 256.126 229.828 256.769 229.828 256.769Z" fill="#343434"/>
<path d="M266.274 215.766C266.274 215.766 272.782 228.784 266.928 239.195C263.39 245.451 258.215 250.625 251.959 254.163C251.959 254.163 268.879 238.552 266.274 215.766Z" fill="#343434"/>
<path d="M246.748 273.689L256.505 280.198C256.505 280.198 255.84 271.738 246.748 273.689Z" fill="#343434"/>
<path d="M255.84 263.932L265.597 270.441C265.597 270.441 264.977 261.969 255.84 263.932Z" fill="#343434"/>
<path d="M273.437 252.866L283.194 259.375C283.194 259.375 282.539 250.96 273.437 252.866Z" fill="#343434"/>
<path d="M283.848 243.064L293.605 249.572C293.605 249.572 292.962 241.146 283.848 243.064Z" fill="#343434"/>
<path d="M236.393 289.312C235.728 286.187 231.712 283.83 228.091 282.296C225.091 282.961 220.646 283.898 217.477 284.326C212.265 285.014 203.23 286.751 204.967 293.711C206.704 300.671 220.263 300.31 230.685 297.535C233.317 296.779 235.849 295.715 238.232 294.366C237.395 292.771 236.776 291.072 236.393 289.312Z" fill="white"/>
<path d="M277.982 243.064C282.494 236.555 276.685 245.67 263.014 254.13C249.342 262.59 229.828 256.735 229.828 256.735L229.208 257.141C235.131 261.174 241.95 263.699 249.072 264.496L241.176 272.133C255.704 266.752 273.718 249.2 277.982 243.064Z" fill="white"/>
</g>
<path d="M257.115 206.066C257.115 206.066 268.936 206.415 283.882 214.413C298.828 222.41 313.774 226.234 313.774 234.92C313.774 243.605 282.833 261.687 267.887 272.809C252.941 283.931 241.119 294.715 230.663 297.501C220.206 300.288 206.682 300.626 204.945 293.677C203.207 286.729 212.243 284.981 217.454 284.292C222.665 283.604 231.362 281.506 231.362 281.506L249.072 264.496C249.072 264.496 228.903 263.109 219.518 246.764" stroke="#343434" stroke-width="1.5" stroke-miterlimit="10"/>
<path d="M249.072 264.496C249.072 264.496 277.576 258.935 281.051 234.942" stroke="#343434" stroke-width="1.5" stroke-miterlimit="10" stroke-linecap="round"/>
<path d="M204.967 293.677C204.967 293.677 207.742 288.455 211.916 287.767" stroke="#343434" stroke-width="1.5" stroke-miterlimit="10" stroke-linecap="round"/>
<path d="M209.479 297.501C209.479 297.501 211.566 289.854 217.826 289.854" stroke="#343434" stroke-width="1.5" stroke-miterlimit="10" stroke-linecap="round"/>
<path d="M251.328 159.141C251.328 159.141 270.854 161.104 285.168 175.418C299.482 189.732 302.088 216.421 302.088 209.258C302.088 202.095 298.185 182.581 289.68 172.158C281.175 161.735 257.16 155.892 251.328 159.141Z" fill="#343434"/>
<path d="M236.089 166.676C236.089 166.676 251.802 168.244 263.319 179.761C274.836 191.277 276.934 212.755 276.934 206.968C276.934 201.181 273.787 185.536 266.985 177.121C260.183 168.706 240.804 164.104 236.089 166.676Z" fill="#343434"/>
<path d="M263.668 148.086C263.668 148.086 283.194 150.038 297.508 164.352C311.823 178.667 314.428 205.355 314.428 198.192C314.428 191.029 310.526 171.515 302.02 161.104C293.515 150.692 269.523 144.827 263.668 148.086Z" fill="#343434"/>
<path d="M279.945 129.204C279.945 129.204 299.46 131.155 313.785 145.481C328.111 159.806 330.705 186.483 330.705 179.321C330.705 172.158 326.802 152.632 318.297 142.221C309.792 131.809 285.8 125.955 279.945 129.204Z" fill="#343434"/>
<path d="M92.1893 312.921C99.665 312.921 105.725 310.093 105.725 306.604C105.725 303.116 99.665 300.288 92.1893 300.288C84.7136 300.288 78.6533 303.116 78.6533 306.604C78.6533 310.093 84.7136 312.921 92.1893 312.921Z" fill="#343434"/>
<path d="M87.4632 310.699C97.6364 310.699 105.883 302.452 105.883 292.279C105.883 282.105 97.6364 273.858 87.4632 273.858C77.29 273.858 69.043 282.105 69.043 292.279C69.043 302.452 77.29 310.699 87.4632 310.699Z" fill="#1E4646" stroke="#343434" stroke-width="1.5" stroke-miterlimit="10"/>
<path d="M86.7302 283.92C86.6926 284.89 86.3705 285.828 85.8041 286.617C85.2376 287.406 84.4517 288.01 83.5442 288.356C82.6367 288.702 81.6476 288.773 80.7 288.561C79.7524 288.348 78.8881 287.862 78.2146 287.163C77.5411 286.463 77.0882 285.581 76.9121 284.626C76.7361 283.671 76.8447 282.685 77.2245 281.792C77.6043 280.898 78.2385 280.136 79.0481 279.599C79.8578 279.063 80.8072 278.777 81.7783 278.776C82.4414 278.788 83.0957 278.931 83.7038 279.196C84.3118 279.461 84.8615 279.843 85.3215 280.321C85.7815 280.799 86.1427 281.362 86.3844 281.98C86.6262 282.598 86.7437 283.257 86.7302 283.92Z" fill="white"/>
</svg>
